ffmpeg started on 2025-05-12 at 20:48:29
Report written to "D:\Convert\FFMetrics\reports\ssim_report-6.txt"
Log level: 32
Command line:
ffmpeg -hide_banner -nostdin -i "G:\\\xc0\xed\xe8\xec\xe5\\\xce\xed\xe3\xee\xe8\xed\xe3\xe8\\!_35_\xcb\xe5\xf2\xee_2024\\DreamCast-1\\\xcf\xf0\xe8\xea\xeb\xfe\xf7\xe5\xed\xe8\xff \xe2 \xe4\xf0\xf3\xe3\xee\xec \xec\xe8\xf0\xe5 - \xc2\xee\xf1\xef\xe8\xf2\xfb\xe2\xe0\xf2\xfc \xe4\xe5\xf2\xe5\xe9 \xe1\xf3\xe4\xf3\xf7\xe8 \xe0\xe2\xe0\xed\xf2\xfe\xf0\xe8\xf1\xf2\xee\xec\\[DC] Iseyuru - 06_Telegram_HEVC.mkv" -i "G:\\\xc0\xed\xe8\xec\xe5\\\xce\xed\xe3\xee\xe8\xed\xe3\xe8\\!_35_\xcb\xe5\xf2\xee_2024\\DreamCast-1\\\xcf\xf0\xe8\xea\xeb\xfe\xf7\xe5\xed\xe8\xff \xe2 \xe4\xf0\xf3\xe3\xee\xec \xec\xe8\xf0\xe5 - \xc2\xee\xf1\xef\xe8\xf2\xfb\xe2\xe0\xf2\xfc \xe4\xe5\xf2\xe5\xe9 \xe1\xf3\xe4\xf3\xf7\xe8 \xe0\xe2\xe0\xed\xf2\xfe\xf0\xe8\xf1\xf2\xee\xec\\[DC] Iseyuru - 06_Telegram.mp4" -lavfi "[0:v]settb=AVTB,setpts=PTS-STARTPTS,format=pix_fmts=yuv420p10,fps=24000/1001,scale=1920:1080:flags=bicubic[main];[1:v]settb=AVTB,setpts=PTS-STARTPTS,format=pix_fmts=yuv420p,fps=24000/1001,scale=1920:1080:flags=bicubic[ref];[main][ref]ssim=eof_action=endall:stats_file='D\\:/Convert/FFMetrics/logs/ssim_logfile-6.txt'" -f null -
Input #0, matroska,webm, from 'G:\Аниме\Онгоинги\!_35_Лето_2024\DreamCast-1\Приключения в другом мире - Воспитывать детей будучи авантюристом\[DC] Iseyuru - 06_Telegram_HEVC.mkv':
  Metadata:
    COMPATIBLE_BRANDS: isomiso2avc1mp41
    MAJOR_BRAND     : isom
    MINOR_VERSION   : 512
    ENCODER         : Lavf61.7.100
  Duration: 00:23:56.59, start: -0.021000, bitrate: 978 kb/s
  Stream #0:0: Video: hevc (Main 10), yuv420p10le(tv, bt709, progressive), 1920x1080 [SAR 1:1 DAR 16:9], 23.98 fps, 23.98 tbr, 1k tbn (default)
      Metadata:
        HANDLER_NAME    : VideoHandler
        VENDOR_ID       : [0][0][0][0]
        ENCODER         : Lavc61.19.100 libx265
        BPS             : 781513
        DURATION        : 00:23:56.476708333
        NUMBER_OF_FRAMES: 34441
        NUMBER_OF_BYTES : 140328251
        _STATISTICS_WRITING_APP: mkvpropedit v66.0.0 ('Josie') 64-bit
        _STATISTICS_WRITING_DATE_UTC: 2025-05-10 13:29:23
        _STATISTICS_TAGS: BPS DURATION NUMBER_OF_FRAMES NUMBER_OF_BYTES
  Stream #0:1: Audio: aac (LC), 48000 Hz, stereo, fltp (default)
      Metadata:
        HANDLER_NAME    : SoundHandler
        VENDOR_ID       : [0][0][0][0]
        ENCODER         : Lavc61.19.100 aac
        BPS             : 193445
        DURATION        : 00:23:56.586000000
        NUMBER_OF_FRAMES: 67341
        NUMBER_OF_BYTES : 34737703
        _STATISTICS_WRITING_APP: mkvpropedit v66.0.0 ('Josie') 64-bit
        _STATISTICS_WRITING_DATE_UTC: 2025-05-10 13:29:23
        _STATISTICS_TAGS: BPS DURATION NUMBER_OF_FRAMES NUMBER_OF_BYTES
Input #1, mov,mp4,m4a,3gp,3g2,mj2, from 'G:\Аниме\Онгоинги\!_35_Лето_2024\DreamCast-1\Приключения в другом мире - Воспитывать детей будучи авантюристом\[DC] Iseyuru - 06_Telegram.mp4':
  Metadata:
    major_brand     : isom
    minor_version   : 512
    compatible_brands: isomiso2avc1mp41
    encoder         : Lavf61.1.100
  Duration: 00:23:56.54, start: 0.000000, bitrate: 3621 kb/s
  Stream #1:0[0x1](und): Video: h264 (High) (avc1 / 0x31637661), yuv420p(tv, bt709, progressive), 1920x1080 [SAR 1:1 DAR 16:9], 3473 kb/s, 23.98 fps, 23.98 tbr, 24k tbn (default)
      Metadata:
        handler_name    : VideoHandler
        vendor_id       : [0][0][0][0]
        encoder         : Lavc61.3.100 h264_qsv
  Stream #1:1[0x2](und): Audio: aac (HE-AACv2) (mp4a / 0x6134706D), 48000 Hz, stereo, fltp, 144 kb/s (default)
      Metadata:
        handler_name    : SoundHandler
        vendor_id       : [0][0][0][0]
Stream mapping:
  Stream #0:0 (hevc) -> settb:default
  Stream #1:0 (h264) -> settb:default
  ssim:default -> Stream #0:0 (wrapped_avframe)
  Stream #0:1 -> #0:1 (aac (native) -> pcm_s16le (native))
Output #0, null, to 'pipe:':
  Metadata:
    COMPATIBLE_BRANDS: isomiso2avc1mp41
    MAJOR_BRAND     : isom
    MINOR_VERSION   : 512
    encoder         : Lavf61.7.100
  Stream #0:0: Video: wrapped_avframe, yuv420p10le(tv, bt709, progressive), 1920x1080 [SAR 1:1 DAR 16:9], q=2-31, 200 kb/s, 23.98 fps, 23.98 tbn
      Metadata:
        encoder         : Lavc61.19.100 wrapped_avframe
  Stream #0:1: Audio: pcm_s16le, 48000 Hz, stereo, s16, 1536 kb/s (default)
      Metadata:
        HANDLER_NAME    : SoundHandler
        VENDOR_ID       : [0][0][0][0]
        _STATISTICS_TAGS: BPS DURATION NUMBER_OF_FRAMES NUMBER_OF_BYTES
        BPS             : 193445
        DURATION        : 00:23:56.586000000
        NUMBER_OF_FRAMES: 67341
        NUMBER_OF_BYTES : 34737703
        _STATISTICS_WRITING_APP: mkvpropedit v66.0.0 ('Josie') 64-bit
        _STATISTICS_WRITING_DATE_UTC: 2025-05-10 13:29:23
        encoder         : Lavc61.19.100 pcm_s16le
frame=  168 fps=0.0 q=-0.0 size=N/A time=00:00:07.00 bitrate=N/A speed=13.3x    frame=  400 fps=387 q=-0.0 size=N/A time=00:00:16.68 bitrate=N/A speed=16.1x    frame=  658 fps=422 q=-0.0 size=N/A time=00:00:27.44 bitrate=N/A speed=17.6x    frame=  901 fps=436 q=-0.0 size=N/A time=00:00:37.57 bitrate=N/A speed=18.2x    frame= 1164 fps=449 q=-0.0 size=N/A time=00:00:48.54 bitrate=N/A speed=18.7x    frame= 1413 fps=456 q=-0.0 size=N/A time=00:00:58.93 bitrate=N/A speed=  19x    frame= 1651 fps=456 q=-0.0 size=N/A time=00:01:08.86 bitrate=N/A speed=  19x    frame= 1879 fps=455 q=-0.0 size=N/A time=00:01:18.36 bitrate=N/A speed=  19x    frame= 2135 fps=459 q=-0.0 size=N/A time=00:01:29.04 bitrate=N/A speed=19.1x    frame= 2377 fps=460 q=-0.0 size=N/A time=00:01:39.14 bitrate=N/A speed=19.2x    frame= 2587 fps=456 q=-0.0 size=N/A time=00:01:47.89 bitrate=N/A speed=  19x    frame= 2788 fps=450 q=-0.0 size=N/A time=00:01:56.28 bitrate=N/A speed=18.8x    frame= 2929 fps=437 q=-0.0 size=N/A time=00:02:02.16 bitrate=N/A speed=18.2x    frame= 3072 fps=425 q=-0.0 size=N/A time=00:02:08.12 bitrate=N/A speed=17.7x    frame= 3288 fps=424 q=-0.0 size=N/A time=00:02:17.13 bitrate=N/A speed=17.7x    frame= 3516 fps=425 q=-0.0 size=N/A time=00:02:26.64 bitrate=N/A speed=17.7x    frame= 3689 fps=421 q=-0.0 size=N/A time=00:02:33.86 bitrate=N/A speed=17.6x    frame= 3895 fps=419 q=-0.0 size=N/A time=00:02:42.45 bitrate=N/A speed=17.5x    frame= 4092 fps=417 q=-0.0 size=N/A time=00:02:50.67 bitrate=N/A speed=17.4x    frame= 4303 fps=417 q=-0.0 size=N/A time=00:02:59.47 bitrate=N/A speed=17.4x    frame= 4484 fps=414 q=-0.0 size=N/A time=00:03:07.02 bitrate=N/A speed=17.3x    frame= 4711 fps=415 q=-0.0 size=N/A time=00:03:16.48 bitrate=N/A speed=17.3x    frame= 4968 fps=419 q=-0.0 size=N/A time=00:03:27.20 bitrate=N/A speed=17.5x    frame= 5222 fps=421 q=-0.0 size=N/A time=00:03:37.80 bitrate=N/A speed=17.6x    frame= 5489 fps=425 q=-0.0 size=N/A time=00:03:48.93 bitrate=N/A speed=17.7x    frame= 5746 fps=428 q=-0.0 size=N/A time=00:03:59.65 bitrate=N/A speed=17.8x    frame= 6011 fps=431 q=-0.0 size=N/A time=00:04:10.70 bitrate=N/A speed=  18x    frame= 6260 fps=433 q=-0.0 size=N/A time=00:04:21.09 bitrate=N/A speed=18.1x    frame= 6476 fps=433 q=-0.0 size=N/A time=00:04:30.10 bitrate=N/A speed=  18x    frame= 6706 fps=433 q=-0.0 size=N/A time=00:04:39.69 bitrate=N/A speed=18.1x    frame= 6941 fps=433 q=-0.0 size=N/A time=00:04:49.49 bitrate=N/A speed=18.1x    frame= 7164 fps=434 q=-0.0 size=N/A time=00:04:58.79 bitrate=N/A speed=18.1x    frame= 7410 fps=435 q=-0.0 size=N/A time=00:05:09.05 bitrate=N/A speed=18.1x    frame= 7647 fps=436 q=-0.0 size=N/A time=00:05:18.94 bitrate=N/A speed=18.2x    frame= 7912 fps=438 q=-0.0 size=N/A time=00:05:29.99 bitrate=N/A speed=18.3x    frame= 8175 fps=440 q=-0.0 size=N/A time=00:05:40.96 bitrate=N/A speed=18.4x    frame= 8418 fps=441 q=-0.0 size=N/A time=00:05:51.10 bitrate=N/A speed=18.4x    frame= 8679 fps=442 q=-0.0 size=N/A time=00:06:01.98 bitrate=N/A speed=18.4x    frame= 8919 fps=443 q=-0.0 size=N/A time=00:06:11.99 bitrate=N/A speed=18.5x    frame= 9145 fps=443 q=-0.0 size=N/A time=00:06:21.42 bitrate=N/A speed=18.5x    frame= 9342 fps=441 q=-0.0 size=N/A time=00:06:29.63 bitrate=N/A speed=18.4x    frame= 9571 fps=441 q=-0.0 size=N/A time=00:06:39.19 bitrate=N/A speed=18.4x    frame= 9812 fps=442 q=-0.0 size=N/A time=00:06:49.24 bitrate=N/A speed=18.4x    frame=10042 fps=442 q=-0.0 size=N/A time=00:06:58.83 bitrate=N/A speed=18.4x    frame=10286 fps=443 q=-0.0 size=N/A time=00:07:09.01 bitrate=N/A speed=18.5x    frame=10533 fps=444 q=-0.0 size=N/A time=00:07:19.31 bitrate=N/A speed=18.5x    frame=10699 fps=441 q=-0.0 size=N/A time=00:07:26.23 bitrate=N/A speed=18.4x    frame=10927 fps=441 q=-0.0 size=N/A time=00:07:35.74 bitrate=N/A speed=18.4x    frame=11098 fps=439 q=-0.0 size=N/A time=00:07:42.87 bitrate=N/A speed=18.3x    frame=11307 fps=438 q=-0.0 size=N/A time=00:07:51.59 bitrate=N/A speed=18.3x    frame=11541 fps=439 q=-0.0 size=N/A time=00:08:01.35 bitrate=N/A speed=18.3x    frame=11788 fps=439 q=-0.0 size=N/A time=00:08:11.65 bitrate=N/A speed=18.3x    frame=12029 fps=440 q=-0.0 size=N/A time=00:08:21.70 bitrate=N/A speed=18.3x    frame=12256 fps=440 q=-0.0 size=N/A time=00:08:31.17 bitrate=N/A speed=18.3x    frame=12461 fps=439 q=-0.0 size=N/A time=00:08:39.72 bitrate=N/A speed=18.3x    frame=12700 fps=439 q=-0.0 size=N/A time=00:08:49.69 bitrate=N/A speed=18.3x    frame=12950 fps=440 q=-0.0 size=N/A time=00:09:00.12 bitrate=N/A speed=18.4x    frame=13194 fps=441 q=-0.0 size=N/A time=00:09:10.29 bitrate=N/A speed=18.4x    frame=13441 fps=442 q=-0.0 size=N/A time=00:09:20.60 bitrate=N/A speed=18.4x    frame=13689 fps=442 q=-0.0 size=N/A time=00:09:30.94 bitrate=N/A speed=18.4x    frame=13938 fps=443 q=-0.0 size=N/A time=00:09:41.33 bitrate=N/A speed=18.5x    frame=14175 fps=443 q=-0.0 size=N/A time=00:09:51.21 bitrate=N/A speed=18.5x    frame=14413 fps=443 q=-0.0 size=N/A time=00:10:01.14 bitrate=N/A speed=18.5x    frame=14668 fps=444 q=-0.0 size=N/A time=00:10:11.77 bitrate=N/A speed=18.5x    frame=14918 fps=445 q=-0.0 size=N/A time=00:10:22.20 bitrate=N/A speed=18.6x    frame=15183 fps=446 q=-0.0 size=N/A time=00:10:33.25 bitrate=N/A speed=18.6x    frame=15399 fps=445 q=-0.0 size=N/A time=00:10:42.26 bitrate=N/A speed=18.6x    frame=15630 fps=445 q=-0.0 size=N/A time=00:10:51.90 bitrate=N/A speed=18.6x    frame=15804 fps=444 q=-0.0 size=N/A time=00:10:59.15 bitrate=N/A speed=18.5x    frame=15992 fps=443 q=-0.0 size=N/A time=00:11:06.99 bitrate=N/A speed=18.5x    frame=16209 fps=442 q=-0.0 size=N/A time=00:11:16.05 bitrate=N/A speed=18.5x    frame=16433 fps=442 q=-0.0 size=N/A time=00:11:25.39 bitrate=N/A speed=18.4x    frame=16678 fps=443 q=-0.0 size=N/A time=00:11:35.61 bitrate=N/A speed=18.5x    frame=16923 fps=443 q=-0.0 size=N/A time=00:11:45.83 bitrate=N/A speed=18.5x    frame=17153 fps=443 q=-0.0 size=N/A time=00:11:55.42 bitrate=N/A speed=18.5x    frame=17399 fps=444 q=-0.0 size=N/A time=00:12:05.68 bitrate=N/A speed=18.5x    frame=17622 fps=444 q=-0.0 size=N/A time=00:12:14.98 bitrate=N/A speed=18.5x    frame=17866 fps=444 q=-0.0 size=N/A time=00:12:25.16 bitrate=N/A speed=18.5x    frame=18099 fps=444 q=-0.0 size=N/A time=00:12:34.87 bitrate=N/A speed=18.5x    frame=18312 fps=443 q=-0.0 size=N/A time=00:12:43.76 bitrate=N/A speed=18.5x    frame=18537 fps=443 q=-0.0 size=N/A time=00:12:53.14 bitrate=N/A speed=18.5x    frame=18753 fps=443 q=-0.0 size=N/A time=00:13:02.15 bitrate=N/A speed=18.5x    frame=18979 fps=443 q=-0.0 size=N/A time=00:13:11.58 bitrate=N/A speed=18.5x    frame=19244 fps=444 q=-0.0 size=N/A time=00:13:22.63 bitrate=N/A speed=18.5x    frame=19469 fps=444 q=-0.0 size=N/A time=00:13:32.01 bitrate=N/A speed=18.5x    frame=19711 fps=444 q=-0.0 size=N/A time=00:13:42.11 bitrate=N/A speed=18.5x    frame=19958 fps=444 q=-0.0 size=N/A time=00:13:52.41 bitrate=N/A speed=18.5x    frame=20180 fps=444 q=-0.0 size=N/A time=00:14:01.67 bitrate=N/A speed=18.5x    frame=20414 fps=444 q=-0.0 size=N/A time=00:14:11.43 bitrate=N/A speed=18.5x    frame=20666 fps=445 q=-0.0 size=N/A time=00:14:21.94 bitrate=N/A speed=18.6x    frame=20896 fps=445 q=-0.0 size=N/A time=00:14:31.53 bitrate=N/A speed=18.6x    frame=21118 fps=445 q=-0.0 size=N/A time=00:14:40.79 bitrate=N/A speed=18.6x    frame=21337 fps=445 q=-0.0 size=N/A time=00:14:49.93 bitrate=N/A speed=18.5x    frame=21577 fps=445 q=-0.0 size=N/A time=00:14:59.94 bitrate=N/A speed=18.6x    frame=21834 fps=445 q=-0.0 size=N/A time=00:15:10.65 bitrate=N/A speed=18.6x    frame=22061 fps=445 q=-0.0 size=N/A time=00:15:20.12 bitrate=N/A speed=18.6x    frame=22307 fps=446 q=-0.0 size=N/A time=00:15:30.38 bitrate=N/A speed=18.6x    frame=22536 fps=446 q=-0.0 size=N/A time=00:15:39.93 bitrate=N/A speed=18.6x    frame=22781 fps=446 q=-0.0 size=N/A time=00:15:50.15 bitrate=N/A speed=18.6x    frame=23034 fps=446 q=-0.0 size=N/A time=00:16:00.70 bitrate=N/A speed=18.6x    frame=23263 fps=446 q=-0.0 size=N/A time=00:16:10.26 bitrate=N/A speed=18.6x    frame=23502 fps=447 q=-0.0 size=N/A time=00:16:20.22 bitrate=N/A speed=18.6x    frame=23744 fps=447 q=-0.0 size=N/A time=00:16:30.32 bitrate=N/A speed=18.6x    frame=23934 fps=446 q=-0.0 size=N/A time=00:16:38.24 bitrate=N/A speed=18.6x    frame=24161 fps=446 q=-0.0 size=N/A time=00:16:47.71 bitrate=N/A speed=18.6x    frame=24365 fps=445 q=-0.0 size=N/A time=00:16:56.22 bitrate=N/A speed=18.6x    frame=24579 fps=445 q=-0.0 size=N/A time=00:17:05.14 bitrate=N/A speed=18.6x    frame=24800 fps=445 q=-0.0 size=N/A time=00:17:14.36 bitrate=N/A speed=18.6x    frame=25030 fps=445 q=-0.0 size=N/A time=00:17:23.95 bitrate=N/A speed=18.6x    frame=25265 fps=445 q=-0.0 size=N/A time=00:17:33.76 bitrate=N/A speed=18.6x    frame=25482 fps=445 q=-0.0 size=N/A time=00:17:42.81 bitrate=N/A speed=18.6x    frame=25678 fps=444 q=-0.0 size=N/A time=00:17:50.98 bitrate=N/A speed=18.5x    frame=25864 fps=444 q=-0.0 size=N/A time=00:17:58.74 bitrate=N/A speed=18.5x    frame=26089 fps=443 q=-0.0 size=N/A time=00:18:08.12 bitrate=N/A speed=18.5x    frame=26307 fps=443 q=-0.0 size=N/A time=00:18:17.22 bitrate=N/A speed=18.5x    frame=26459 fps=442 q=-0.0 size=N/A time=00:18:23.56 bitrate=N/A speed=18.4x    frame=26657 fps=441 q=-0.0 size=N/A time=00:18:31.81 bitrate=N/A speed=18.4x    frame=26885 fps=441 q=-0.0 size=N/A time=00:18:41.32 bitrate=N/A speed=18.4x    frame=27089 fps=441 q=-0.0 size=N/A time=00:18:49.83 bitrate=N/A speed=18.4x    frame=27294 fps=441 q=-0.0 size=N/A time=00:18:58.38 bitrate=N/A speed=18.4x    frame=27508 fps=440 q=-0.0 size=N/A time=00:19:07.31 bitrate=N/A speed=18.4x    frame=27728 fps=440 q=-0.0 size=N/A time=00:19:16.48 bitrate=N/A speed=18.4x    frame=27952 fps=440 q=-0.0 size=N/A time=00:19:25.83 bitrate=N/A speed=18.4x    frame=28166 fps=440 q=-0.0 size=N/A time=00:19:34.75 bitrate=N/A speed=18.4x    frame=28401 fps=440 q=-0.0 size=N/A time=00:19:44.55 bitrate=N/A speed=18.4x    frame=28645 fps=441 q=-0.0 size=N/A time=00:19:54.73 bitrate=N/A speed=18.4x    frame=28883 fps=441 q=-0.0 size=N/A time=00:20:04.66 bitrate=N/A speed=18.4x    frame=29121 fps=441 q=-0.0 size=N/A time=00:20:14.58 bitrate=N/A speed=18.4x    frame=29354 fps=441 q=-0.0 size=N/A time=00:20:24.30 bitrate=N/A speed=18.4x    frame=29583 fps=441 q=-0.0 size=N/A time=00:20:33.85 bitrate=N/A speed=18.4x    frame=29809 fps=441 q=-0.0 size=N/A time=00:20:43.28 bitrate=N/A speed=18.4x    frame=30047 fps=441 q=-0.0 size=N/A time=00:20:53.21 bitrate=N/A speed=18.4x    frame=30264 fps=441 q=-0.0 size=N/A time=00:21:02.26 bitrate=N/A speed=18.4x    frame=30473 fps=441 q=-0.0 size=N/A time=00:21:10.97 bitrate=N/A speed=18.4x    frame=30696 fps=441 q=-0.0 size=N/A time=00:21:20.27 bitrate=N/A speed=18.4x    frame=30922 fps=441 q=-0.0 size=N/A time=00:21:29.70 bitrate=N/A speed=18.4x    frame=31151 fps=441 q=-0.0 size=N/A time=00:21:39.25 bitrate=N/A speed=18.4x    frame=31376 fps=441 q=-0.0 size=N/A time=00:21:48.64 bitrate=N/A speed=18.4x    frame=31599 fps=441 q=-0.0 size=N/A time=00:21:57.94 bitrate=N/A speed=18.4x    frame=31862 fps=441 q=-0.0 size=N/A time=00:22:08.91 bitrate=N/A speed=18.4x    frame=32111 fps=441 q=-0.0 size=N/A time=00:22:19.29 bitrate=N/A speed=18.4x    frame=32363 fps=442 q=-0.0 size=N/A time=00:22:29.80 bitrate=N/A speed=18.4x    frame=32604 fps=442 q=-0.0 size=N/A time=00:22:39.85 bitrate=N/A speed=18.4x    frame=32843 fps=442 q=-0.0 size=N/A time=00:22:49.82 bitrate=N/A speed=18.4x    frame=33046 fps=442 q=-0.0 size=N/A time=00:22:58.29 bitrate=N/A speed=18.4x    frame=33246 fps=441 q=-0.0 size=N/A time=00:23:06.63 bitrate=N/A speed=18.4x    frame=33463 fps=441 q=-0.0 size=N/A time=00:23:15.68 bitrate=N/A speed=18.4x    frame=33673 fps=441 q=-0.0 size=N/A time=00:23:24.44 bitrate=N/A speed=18.4x    frame=33844 fps=440 q=-0.0 size=N/A time=00:23:31.57 bitrate=N/A speed=18.4x    frame=34048 fps=440 q=-0.0 size=N/A time=00:23:40.08 bitrate=N/A speed=18.3x    frame=34232 fps=439 q=-0.0 size=N/A time=00:23:47.75 bitrate=N/A speed=18.3x    [Parsed_ssim_10 @ 0000015da0fc7280] SSIM Y:0.995338 (23.314087) U:0.993169 (21.655170) V:0.993416 (21.815250) All:0.994656 (22.721393)
[out#0/null @ 0000015d9e644e00] video:14799KiB audio:269364KiB subtitle:0KiB other streams:0KiB global headers:0KiB muxing overhead: unknown
frame=34441 fps=439 q=-0.0 Lsize=N/A time=00:23:56.47 bitrate=N/A speed=18.3x    
